<?xml version="1.0" encoding="UTF-8" standalone="no"?>
<!-- Created with Inkscape (http://www.inkscape.org/) -->

<svg
   xmlns:dc="http://purl.org/dc/elements/1.1/"
   xmlns:cc="http://creativecommons.org/ns#"
   xmlns:rdf="http://www.w3.org/1999/02/22-rdf-syntax-ns#"
   xmlns:svg="http://www.w3.org/2000/svg"
   xmlns="http://www.w3.org/2000/svg"
   xmlns:sodipodi="http://sodipodi.sourceforge.net/DTD/sodipodi-0.dtd"
   xmlns:inkscape="http://www.inkscape.org/namespaces/inkscape"
   width="940"
   height="330"
   id="svg2"
   version="1.1"
   inkscape:version="0.47pre4 r22446"
   sodipodi:docname="Neues Dokument 1">
  <defs
     id="defs4">
    <inkscape:perspective
       sodipodi:type="inkscape:persp3d"
       inkscape:vp_x="0 : 526.18109 : 1"
       inkscape:vp_y="0 : 1000 : 0"
       inkscape:vp_z="744.09448 : 526.18109 : 1"
       inkscape:persp3d-origin="372.04724 : 350.78739 : 1"
       id="perspective10" />
    <marker
       orient="auto"
       markerHeight="3"
       markerWidth="4"
       markerUnits="strokeWidth"
       refY="5"
       refX="10"
       viewBox="0 0 10 10"
       id="ArrowStart">
      <path
         id="path2824"
         d="M 10,0 0,5 10,10 z" />
    </marker>
    <marker
       orient="auto"
       markerHeight="3"
       markerWidth="4"
       markerUnits="strokeWidth"
       refY="5"
       refX="0"
       viewBox="0 0 10 10"
       id="ArrowEnd">
      <path
         id="path2821"
         d="M 0,0 10,5 0,10 z" />
    </marker>
    <inkscape:perspective
       id="perspective2940"
       inkscape:persp3d-origin="372.04749 : 350.78752 : 1"
       inkscape:vp_z="744.09497 : 526.18127 : 1"
       inkscape:vp_y="0 : 1000 : 0"
       inkscape:vp_x="0 : 526.18127 : 1"
       sodipodi:type="inkscape:persp3d" />
  </defs>
  <sodipodi:namedview
     id="base"
     pagecolor="#ffffff"
     bordercolor="#666666"
     borderopacity="1.0"
     inkscape:pageopacity="0.0"
     inkscape:pageshadow="2"
     inkscape:zoom="1.4"
     inkscape:cx="479.02687"
     inkscape:cy="200.81004"
     inkscape:document-units="px"
     inkscape:current-layer="layer1"
     showgrid="false"
     inkscape:window-width="1400"
     inkscape:window-height="977"
     inkscape:window-x="0"
     inkscape:window-y="25"
     inkscape:window-maximized="1" />
  <metadata
     id="metadata7">
    <rdf:RDF>
      <cc:Work
         rdf:about="">
        <dc:format>image/svg+xml</dc:format>
        <dc:type
           rdf:resource="http://purl.org/dc/dcmitype/StillImage" />
        <dc:title></dc:title>
      </cc:Work>
    </rdf:RDF>
  </metadata>
  <g
     inkscape:label="Ebene 1"
     inkscape:groupmode="layer"
     id="layer1"
     transform="translate(0,-722.36218)">
    <g
       style="fill-rule:evenodd"
       id="g2947"
       transform="matrix(1.25,0,0,1.25,-6.002816,-1.4524555)">
      <g
         id="g2826">
        <path
           id="path2828"
           d="m 9.4302,792.184 0,-36.36 34.6088,0 0,4.952 -28.5263,0 0,11.884 16.2671,0 0,4.857 -16.2671,0 0,14.667 -6.0825,0 z"
           style="fill:#1f1a16;stroke:none" />
        <path
           id="path2830"
           d="m 55.591,778.602 19.5677,0 -9.8074,-18.628 -9.7603,18.628 z m -13.1551,13.582 19.8506,-36.36 6.5068,0 20.1806,36.36 -6.6954,0 -4.6208,-8.96 -24.6128,0 -4.6208,8.96 -5.9882,0 z"
           style="fill:#1f1a16;stroke:none" />
        <path
           id="path2832"
           d="m 100.715,792.184 0,-36.36 6.082,0 0,14.855 28.668,0 0,-14.855 6.035,0 0,36.36 -6.035,0 0,-16.506 -28.668,0 0,16.506 -6.082,0 z"
           style="fill:#1f1a16;stroke:none" />
        <path
           id="path2834"
           d="m 187.331,760.493 -20.841,0 0,12.78 20.841,0 0.519,0 0.518,-0.047 0.425,-0.047 0.424,-0.095 0.377,-0.094 0.33,-0.141 0.283,-0.189 0.189,-0.189 0.236,-0.236 0.141,-0.283 0.141,-0.283 0.095,-0.33 0.094,-0.377 0.094,-0.424 0.047,-0.472 0,-0.519 0,-5.281 0,-0.472 -0.047,-0.472 -0.094,-0.424 -0.094,-0.377 -0.095,-0.378 -0.141,-0.283 -0.189,-0.283 -0.188,-0.235 -0.236,-0.189 -0.283,-0.142 -0.33,-0.188 -0.33,-0.094 -0.424,-0.095 -0.425,-0.047 -0.518,-0.047 -0.519,-0.047 z m -26.923,31.691 0,-36.36 29.28,0 0.991,0 0.896,0.094 0.848,0.142 0.802,0.141 0.66,0.236 0.66,0.283 0.566,0.377 0.471,0.378 0.425,0.471 0.377,0.472 0.283,0.613 0.283,0.613 0.188,0.707 0.142,0.755 0.094,0.849 0,0.896 0,8.111 0,0.896 -0.094,0.849 -0.142,0.755 -0.188,0.707 -0.283,0.613 -0.283,0.566 -0.377,0.519 -0.425,0.471 -0.471,0.378 -0.566,0.33 -0.66,0.283 -0.66,0.235 -0.802,0.189 -0.848,0.142 -0.896,0.094 -0.991,0 -5.328,0 16.598,14.195 -9.006,0 -14.759,-14.195 -10.703,0 0,14.195 -6.082,0 z"
           style="fill:#1f1a16;stroke:none" />
        <path
           id="path2836"
           d="m 209.303,792.184 0,-2.5 26.924,-28.908 -24.613,0 0,-4.952 34.278,0 0,2.028 -27.394,29.239 27.394,0 0,5.093 -36.589,0 z"
           style="fill:#1f1a16;stroke:none" />
        <path
           id="path2838"
           d="m 262.018,792.184 0,-36.36 35.033,0 0,4.857 -28.903,0 0,10.14 17.681,0 0,4.81 -17.681,0 0,11.554 29.186,0 0,4.999 -35.316,0 z"
           style="fill:#1f1a16;stroke:none" />
        <path
           id="path2840"
           d="m 317.845,755.824 0,31.267 26.499,0 0,-31.267 5.988,0 0,27.73 -0.047,1.226 -0.095,1.084 -0.141,0.991 -0.189,0.943 -0.235,0.802 -0.33,0.66 -0.142,0.33 -0.188,0.283 -0.236,0.283 -0.189,0.236 -0.236,0.188 -0.282,0.236 -0.283,0.189 -0.283,0.141 -0.708,0.33 -0.754,0.236 -0.896,0.189 -0.99,0.141 -1.084,0.095 -1.179,0.047 -21.548,0 -1.179,-0.047 -1.084,-0.095 -0.991,-0.141 -0.896,-0.189 -0.801,-0.283 -0.707,-0.283 -0.33,-0.188 -0.283,-0.189 -0.236,-0.189 -0.236,-0.235 -0.236,-0.236 -0.188,-0.283 -0.189,-0.283 -0.188,-0.33 -0.283,-0.66 -0.283,-0.802 -0.189,-0.896 -0.141,-0.991 -0.047,-1.131 -0.048,-1.179 0,-27.73 6.083,0 z"
           style="fill:#1f1a16;stroke:none" />
        <path
           id="path2842"
           d="m 403.283,760.776 -28.48,0 0,26.315 28.48,0 0,-10.658 -14.712,0 0,-4.622 20.747,0 0,11.743 0,1.226 -0.094,1.084 -0.142,0.991 -0.189,0.896 -0.282,0.802 -0.283,0.707 -0.189,0.33 -0.189,0.283 -0.188,0.236 -0.236,0.236 -0.236,0.235 -0.235,0.189 -0.283,0.189 -0.33,0.188 -0.708,0.33 -0.754,0.236 -0.896,0.189 -0.99,0.141 -1.132,0.095 -1.178,0.047 -23.482,0 -1.226,-0.047 -1.084,-0.095 -0.99,-0.141 -0.896,-0.189 -0.802,-0.283 -0.707,-0.283 -0.283,-0.188 -0.283,-0.189 -0.283,-0.189 -0.235,-0.235 -0.189,-0.236 -0.236,-0.283 -0.188,-0.283 -0.142,-0.33 -0.33,-0.66 -0.236,-0.802 -0.188,-0.896 -0.142,-0.991 -0.094,-1.084 0,-1.226 0,-19.147 0,-1.179 0.094,-1.085 0.142,-0.99 0.188,-0.896 0.236,-0.802 0.33,-0.707 0.142,-0.33 0.188,-0.283 0.236,-0.283 0.189,-0.236 0.235,-0.189 0.283,-0.235 0.283,-0.189 0.283,-0.189 0.707,-0.283 0.802,-0.283 0.896,-0.188 0.99,-0.142 1.084,-0.094 1.226,0 23.482,0 1.178,0 1.085,0.094 0.99,0.142 0.896,0.188 0.754,0.236 0.707,0.33 0.331,0.142 0.282,0.188 0.283,0.236 0.236,0.189 0.189,0.236 0.235,0.283 0.189,0.235 0.142,0.331 0.33,0.66 0.282,0.754 0.189,0.849 0.142,0.943 0.094,1.038 0,1.085 0,0.896 -6.035,1.226 0,-5.329 z"
           style="fill:#1f1a16;stroke:none" />
        <path
           id="path2844"
           d="m 440.862,760.776 0,31.408 -6.083,0 0,-31.408 -16.597,0 0,-4.952 39.371,0 0,4.952 -16.691,0 z"
           style="fill:#1f1a16;stroke:none" />
        <path
           id="path2846"
           d="m 467.738,792.184 0,-36.36 35.033,0 0,4.857 -28.951,0 0,10.14 17.682,0 0,4.81 -17.682,0 0,11.554 29.234,0 0,4.999 -35.316,0 z"
           style="fill:#1f1a16;stroke:none" />
        <path
           id="path2848"
           d="m 548.272,760.776 -25.226,0 0,26.315 25.226,0 0,-9.102 6.082,1.273 0,4.292 -0.047,1.226 -0.094,1.084 -0.142,0.991 -0.188,0.943 -0.236,0.802 -0.283,0.66 -0.188,0.33 -0.189,0.283 -0.189,0.283 -0.188,0.236 -0.236,0.188 -0.283,0.236 -0.283,0.189 -0.283,0.141 -0.707,0.33 -0.802,0.236 -0.895,0.189 -0.991,0.141 -1.084,0.095 -1.179,0.047 -20.322,0 -1.226,-0.047 -1.084,-0.095 -0.991,-0.141 -0.895,-0.189 -0.802,-0.236 -0.66,-0.33 -0.33,-0.188 -0.283,-0.189 -0.283,-0.189 -0.236,-0.235 -0.188,-0.236 -0.189,-0.236 -0.188,-0.283 -0.189,-0.33 -0.33,-0.707 -0.236,-0.802 -0.189,-0.896 -0.141,-0.991 -0.094,-1.084 0,-1.226 0,-19.147 0,-1.226 0.094,-1.085 0.141,-0.99 0.189,-0.896 0.236,-0.802 0.33,-0.707 0.189,-0.283 0.188,-0.283 0.189,-0.283 0.188,-0.236 0.236,-0.236 0.283,-0.188 0.283,-0.189 0.33,-0.189 0.66,-0.283 0.802,-0.283 0.895,-0.188 0.991,-0.142 1.084,-0.094 1.226,0 20.322,0 1.179,0 1.084,0.094 0.991,0.142 0.895,0.188 0.802,0.236 0.707,0.33 0.283,0.189 0.283,0.189 0.283,0.188 0.236,0.189 0.188,0.236 0.189,0.283 0.189,0.283 0.188,0.33 0.283,0.707 0.236,0.802 0.188,0.896 0.142,0.99 0.094,1.085 0.047,1.226 0,3.443 -6.082,1.131 0,-8.205 z"
           style="fill:#1f1a16;stroke:none" />
        <path
           id="path2850"
           d="m 570.291,792.184 0,-36.36 6.083,0 0,14.855 28.668,0 0,-14.855 6.035,0 0,36.36 -6.035,0 0,-16.506 -28.668,0 0,16.506 -6.083,0 z"
           style="fill:#1f1a16;stroke:none" />
        <path
           id="path2852"
           d="m 629.937,792.184 0,-36.36 3.82,0 27.206,24.287 0.471,0.424 0.519,0.519 0.471,0.519 0.519,0.519 0.519,0.613 0.566,0.66 0.518,0.66 0.566,0.66 -0.141,-0.848 -0.095,-0.944 -0.094,-0.896 -0.094,-0.943 -0.047,-1.084 -0.048,-1.227 -0.047,-1.414 0,-1.557 0,-19.948 5.564,0 0,36.36 -3.395,0 -27.913,-25.325 -0.236,-0.188 -0.377,-0.33 -0.99,-0.944 -0.802,-0.896 -0.377,-0.424 -0.33,-0.425 -0.283,-0.424 -0.283,-0.424 0.094,0.848 0.095,0.849 0.047,0.896 0.047,0.896 0.047,0.991 0.047,1.084 0.047,1.132 0,1.226 0,21.458 -5.611,0 z"
           style="fill:#1f1a16;stroke:none" />
        <path
           id="path2854"
           d="m 688.97,792.184 0,-36.36 6.083,0 0,36.36 -6.083,0 z"
           style="fill:#1f1a16;stroke:none" />
        <path
           id="path2856"
           d="m 713.913,792.184 0,-36.36 6.083,0 0,15.563 22.679,-15.563 8.865,0 -26.358,17.402 29.234,18.958 -10.137,0 -24.283,-16.364 0,16.364 -6.083,0 z"
           style="fill:#1f1a16;stroke:none" />
        <path
           id="path2858"
           d="m 7.87422,609.583 0,-27.541 4.62078,0 0,27.541 -4.62078,0 z"
           style="fill:#1f1a16;stroke:none" />
        <path
           id="path2860"
           d="m 26.7346,609.583 0,-27.541 2.9234,0 20.5578,18.392 0.3772,0.33 0.3772,0.377 0.3772,0.378 0.3772,0.424 0.4244,0.472 0.3772,0.471 0.4244,0.519 0.4243,0.519 -0.0943,-0.661 -0.0943,-0.707 -0.0943,-0.707 -0.0471,-0.708 -0.0472,-0.801 -0.0471,-0.896 0,-1.085 0,-1.226 0,-15.091 4.1964,0 0,27.541 -2.5461,0 -21.1708,-19.147 -0.1886,-0.189 -0.2358,-0.235 -0.7544,-0.708 -0.613,-0.66 -0.5658,-0.66 -0.4244,-0.66 0.0944,0.66 0.0471,0.66 0.0472,0.66 0.0471,0.708 0.0472,0.707 0,0.849 0.0471,0.849 0,0.943 0,16.223 -4.2436,0 z"
           style="fill:#1f1a16;stroke:none" />
        <path
           id="path2862"
           d="m 94.915,585.815 -19.4734,0 0,7.639 17.3516,0 0.8958,0.047 0.8016,0.048 0.7073,0.094 0.6601,0.189 0.6129,0.188 0.5187,0.236 0.4244,0.236 0.3772,0.33 0.33,0.377 0.2829,0.472 0.2358,0.519 0.1886,0.613 0.1414,0.66 0.0944,0.754 0.0943,0.849 0,0.896 0,3.113 0,0.896 -0.0943,0.849 -0.0944,0.754 -0.1414,0.66 -0.1886,0.614 -0.2358,0.518 -0.2829,0.472 -0.2829,0.377 -0.3772,0.33 -0.4243,0.283 -0.5187,0.189 -0.613,0.236 -0.6601,0.141 -0.7544,0.095 -0.8016,0.047 -0.8958,0.047 -16.0785,0 -0.8959,-0.047 -0.8487,-0.047 -0.7544,-0.095 -0.6601,-0.188 -0.613,-0.189 -0.5187,-0.236 -0.4243,-0.236 -0.3772,-0.33 -0.3301,-0.377 -0.2829,-0.472 -0.2357,-0.518 -0.1887,-0.614 -0.1414,-0.66 -0.0943,-0.801 -0.0943,-0.802 0,-0.896 0,-0.755 4.2907,-0.99 0,4.386 20.4636,0 0,-8.253 -17.2573,0 -0.943,-0.047 -0.8016,-0.047 -0.7544,-0.095 -0.6601,-0.141 -0.613,-0.189 -0.5186,-0.236 -0.4244,-0.283 -0.3772,-0.33 -0.3301,-0.377 -0.2829,-0.472 -0.1886,-0.518 -0.1886,-0.613 -0.1414,-0.661 -0.1415,-0.754 -0.0471,-0.849 0,-0.896 0,-2.405 0,-0.896 0.0471,-0.849 0.1415,-0.755 0.1414,-0.66 0.1886,-0.613 0.1886,-0.519 0.2829,-0.471 0.3301,-0.378 0.3772,-0.33 0.4244,-0.283 0.5186,-0.235 0.613,-0.189 0.6601,-0.142 0.7544,-0.094 0.8016,-0.094 0.943,0 14.664,0 0.8487,0 0.8015,0.094 0.7545,0.094 0.6601,0.142 0.6129,0.189 0.5187,0.235 0.4715,0.283 0.3772,0.283 0.3301,0.378 0.2829,0.424 0.2357,0.519 0.1886,0.566 0.1415,0.613 0.1414,0.66 0.0472,0.754 0,0.802 0,0.566 -3.9135,1.132 0,-3.961 z"
           style="fill:#1f1a16;stroke:none" />
        <path
           id="path2864"
           d="m 123.724,585.815 0,23.768 -4.573,0 0,-23.768 -12.59,0 0,-3.773 29.8,0 0,3.773 -12.637,0 z"
           style="fill:#1f1a16;stroke:none" />
        <path
           id="path2866"
           d="m 144.093,609.583 0,-27.541 4.621,0 0,27.541 -4.621,0 z"
           style="fill:#1f1a16;stroke:none" />
        <path
           id="path2868"
           d="m 173.657,585.815 0,23.768 -4.574,0 0,-23.768 -12.589,0 0,-3.773 29.8,0 0,3.773 -12.637,0 z"
           style="fill:#1f1a16;stroke:none" />
        <path
           id="path2870"
           d="m 198.647,582.042 0,23.674 20.039,0 0,-23.674 4.527,0 0,21.033 -0.047,0.896 -0.047,0.849 -0.095,0.754 -0.141,0.66 -0.189,0.614 -0.236,0.518 -0.282,0.472 -0.331,0.377 -0.377,0.33 -0.424,0.283 -0.519,0.189 -0.613,0.236 -0.66,0.141 -0.754,0.095 -0.802,0.047 -0.896,0.047 -16.314,0 -0.896,-0.047 -0.849,-0.047 -0.754,-0.095 -0.66,-0.188 -0.613,-0.189 -0.519,-0.236 -0.471,-0.283 -0.377,-0.33 -0.283,-0.377 -0.283,-0.425 -0.236,-0.566 -0.189,-0.566 -0.141,-0.707 -0.141,-0.754 -0.048,-0.802 0,-0.896 0,-21.033 4.621,0 z"
           style="fill:#1f1a16;stroke:none" />
        <path
           id="path2872"
           d="m 248.203,585.815 0,23.768 -4.574,0 0,-23.768 -12.589,0 0,-3.773 29.799,0 0,3.773 -12.636,0 z"
           style="fill:#1f1a16;stroke:none" />
        <path
           id="path2874"
           d="m 7.87422,665.184 0,-27.541 26.21598,0 0,3.772 -21.5952,0 0,9.008 12.3064,0 0,3.678 -12.3064,0 0,11.083 -4.62078,0 z"
           style="fill:#1f1a16;stroke:none" />
        <path
           id="path2876"
           d="m 46.4437,637.643 0,23.721 20.0392,0 0,-23.721 4.5737,0 0,21.033 -0.0472,0.896 -0.0471,0.849 -0.0943,0.754 -0.1415,0.708 -0.1886,0.613 -0.2358,0.518 -0.2829,0.472 -0.33,0.377 -0.3772,0.283 -0.4244,0.283 -0.5187,0.236 -0.6129,0.189 -0.6601,0.141 -0.7544,0.094 -0.8016,0.095 -0.8959,0 -16.3142,0 -0.8959,0 -0.8487,-0.095 -0.7544,-0.094 -0.6601,-0.141 -0.613,-0.189 -0.5187,-0.236 -0.4715,-0.283 -0.3772,-0.33 -0.2829,-0.377 -0.2829,-0.472 -0.2358,-0.519 -0.1886,-0.613 -0.1414,-0.66 -0.1415,-0.754 -0.0471,-0.849 0,-0.896 0,-21.033 4.5736,0 z m 12.1178,-4.528 0,-4.904 4.1493,0 0,4.904 -4.1493,0 z m -8.3457,0 0,-4.904 4.1965,0 0,4.904 -4.1965,0 z"
           style="fill:#1f1a16;stroke:none" />
        <path
           id="path2878"
           d="m 105.76,641.227 -15.7959,0 0,9.667 15.7959,0 0.801,-0.047 0.66,-0.094 0.236,-0.094 0.283,-0.095 0.189,-0.141 0.188,-0.142 0.142,-0.188 0.094,-0.189 0.141,-0.236 0.095,-0.236 0.094,-0.613 0.047,-0.754 0,-4.009 -0.047,-0.707 -0.141,-0.613 -0.095,-0.236 -0.094,-0.236 -0.141,-0.236 -0.142,-0.141 -0.189,-0.189 -0.188,-0.094 -0.236,-0.141 -0.283,-0.095 -0.66,-0.094 -0.754,-0.047 z m -20.4167,23.957 0,-27.541 22.2077,0 0.755,0.047 0.66,0.047 0.66,0.094 0.566,0.142 0.566,0.188 0.471,0.189 0.425,0.283 0.377,0.283 0.283,0.33 0.283,0.424 0.235,0.425 0.189,0.472 0.141,0.565 0.142,0.566 0.047,0.613 0.047,0.708 0,6.131 -0.047,0.66 -0.047,0.66 -0.142,0.566 -0.141,0.519 -0.189,0.471 -0.235,0.425 -0.283,0.424 -0.283,0.33 -0.377,0.283 -0.425,0.283 -0.471,0.189 -0.566,0.188 -0.566,0.142 -0.66,0.094 -0.66,0.047 -0.755,0.048 -4.055,0 12.59,10.705 -6.837,0 -11.1749,-10.705 -8.11,0 0,10.705 -4.6208,0 z"
           style="fill:#1f1a16;stroke:none" />
        <path
           id="path2880"
           d="m 751.21,631.323 -2.688,0 -2.782,0 -2.923,-0.047 -3.018,-0.047 -6.271,-0.236 -6.601,-0.283 -6.837,-0.424 -7.025,-0.472 -7.167,-0.519 -7.214,-0.613 -7.215,-0.613 -7.119,-0.707 -7.026,-0.755 -6.837,-0.754 -6.554,-0.802 -6.224,-0.802 -5.894,-0.801 -5.422,-0.802 -6.648,-1.038 -6.13,-0.99 -5.752,-0.99 -5.328,-0.896 -9.525,-1.698 -8.298,-1.556 -7.309,-1.415 -6.554,-1.273 -6.082,-1.179 -5.847,-1.085 -2.876,-0.519 -2.971,-0.518 -3.017,-0.472 -3.112,-0.472 -3.207,-0.424 -3.395,-0.472 -3.63,-0.424 -3.772,-0.425 -4.102,-0.424 -4.338,-0.424 -4.715,-0.425 -4.998,-0.424 -5.423,-0.425 -5.799,-0.424 -6.271,-0.425 -6.79,-0.424 -5.847,-0.33 -6.271,-0.377 -6.648,-0.283 -7.026,-0.283 -7.355,-0.189 -7.639,-0.094 -3.913,-0.047 -3.961,0.047 -4.008,0.047 -4.102,0.047 -4.149,0.141 -4.197,0.142 -4.196,0.189 -4.291,0.235 -4.291,0.283 -4.337,0.283 -4.386,0.378 -4.385,0.424 -4.385,0.472 -4.432,0.566 -4.432,0.565 -4.479,0.661 -4.433,0.707 -4.479,0.802 -4.432,0.849 -4.479,0.896 -3.254,0.754 -3.206,0.755 -3.159,0.849 -3.065,0.848 -3.018,0.897 -2.97,0.943 -2.876,0.99 -2.877,1.038 -2.782,1.037 -2.781,1.085 -2.735,1.084 -2.688,1.132 -2.687,1.179 -2.641,1.179 -2.64,1.226 -2.641,1.179 -5.281,2.5 -5.233,2.594 -5.329,2.593 -5.375,2.594 -5.516,2.641 -5.706,2.594 -2.923,1.32 -2.923,1.321 -3.065,1.273 -3.065,1.273 -3.489,1.415 -3.348,1.321 -3.159,1.226 -3.065,1.179 -2.923,1.084 -2.829,0.991 -2.735,0.99 -2.64,0.849 -2.547,0.849 -2.452,0.754 -2.451,0.708 -2.358,0.66 -2.31,0.66 -2.264,0.566 -2.31,0.566 -2.216,0.519 -4.527,0.99 -4.62,0.896 -4.763,0.896 -4.998,0.849 -5.281,0.896 -5.705,0.99 -6.224,1.038 -6.742,1.179 -7.733,1.367 -8.582,1.462 -9.288,1.557 -9.855,1.697 -10.326,1.792 -10.656,1.934 -5.422,0.99 -5.47,1.038 -5.469,1.084 -5.517,1.085 -5.47,1.132 -5.469,1.179 -5.423,1.179 -5.375,1.226 -5.281,1.273 -5.2334,1.274 -5.0923,1.32 -4.998,1.368 -4.8566,1.415 -4.7151,1.414 -4.5736,1.462 -4.3379,1.509 -4.1964,1.557 -3.9607,1.556 -3.7721,1.603 -3.4892,1.651 -2.0746,1.085 -2.2633,1.273 -2.3575,1.462 -2.4519,1.603 -2.5933,1.698 -2.6404,1.839 -2.6876,1.887 -2.6876,2.027 -2.782,2.028 -2.7347,2.075 -2.7348,2.075 -2.6876,2.075 -2.5933,2.075 -2.5461,2.028 -2.499,1.934 -2.3104,1.886 -0.8016,0.66 -0.5658,0.472 -0.1886,0.236 -0.1886,0.188 -0.0943,0.189 -0.0943,0.141 0,0.142 0,0.141 0.0471,0.142 0.0472,0.141 0.1886,0.283 0.33,0.378 0.0943,0.141 0.1415,0.094 0.1414,0.048 0.1415,0.047 0.2829,0 0.2829,-0.095 0.613,-0.377 0.6129,-0.377 1.9804,-1.321 2.2632,-1.462 2.5933,-1.697 2.7819,-1.792 2.9706,-1.887 3.1591,-1.98 3.2062,-1.981 3.2535,-2.028 3.2062,-1.981 3.2063,-1.933 3.0648,-1.792 2.9234,-1.698 2.7347,-1.556 2.4519,-1.321 2.1689,-1.131 1.8389,-0.849 3.4892,-1.462 3.7249,-1.462 3.8664,-1.415 4.1021,-1.415 4.2908,-1.367 4.4322,-1.321 4.5736,-1.32 4.7151,-1.321 4.8566,-1.226 4.9511,-1.273 4.998,-1.179 5.139,-1.179 5.14,-1.179 5.233,-1.085 5.281,-1.085 5.281,-1.084 5.281,-0.991 5.281,-0.99 5.234,-0.99 5.234,-0.896 5.186,-0.896 5.092,-0.849 5.046,-0.802 4.951,-0.754 9.524,-1.415 9.006,-1.274 8.393,-1.131 7.591,-0.896 7.45,-0.991 6.554,-0.896 5.799,-0.754 5.093,-0.661 4.573,-0.66 4.15,-0.566 3.866,-0.613 3.678,-0.613 3.583,-0.66 3.678,-0.755 3.867,-0.848 4.149,-0.944 4.573,-1.084 5.093,-1.274 5.799,-1.462 6.554,-1.65 3.301,-0.896 3.206,-0.896 3.206,-0.991 3.112,-1.037 3.112,-1.085 3.065,-1.132 3.018,-1.179 2.97,-1.179 2.924,-1.226 2.923,-1.226 2.923,-1.273 2.877,-1.321 5.705,-2.64 5.658,-2.641 5.658,-2.689 5.705,-2.64 2.877,-1.274 2.876,-1.273 2.876,-1.273 2.923,-1.226 2.971,-1.227 2.97,-1.179 3.018,-1.131 3.018,-1.085 3.112,-1.038 3.112,-0.99 3.206,-0.943 3.253,-0.896 3.82,-0.991 3.819,-0.943 3.819,-0.849 3.819,-0.801 3.82,-0.755 3.866,-0.707 3.819,-0.66 3.867,-0.566 3.819,-0.566 3.866,-0.519 3.867,-0.472 3.866,-0.377 3.866,-0.377 3.867,-0.377 3.866,-0.283 3.914,-0.236 3.866,-0.236 3.914,-0.189 3.913,-0.188 3.914,-0.142 3.913,-0.094 3.914,-0.094 3.913,-0.048 3.914,-0.047 7.921,0 7.874,0.047 7.922,0.095 7.968,0.188 6.413,0.142 6.035,0.141 5.611,0.189 5.281,0.189 4.951,0.235 4.621,0.189 4.385,0.283 4.102,0.236 3.913,0.283 3.725,0.283 3.537,0.33 3.442,0.33 3.3,0.377 3.206,0.378 3.159,0.377 3.112,0.424 6.272,0.896 6.506,0.991 6.932,1.037 7.544,1.179 8.44,1.273 9.477,1.368 10.798,1.462 12.353,1.556 5.658,0.66 6.13,0.614 6.507,0.565 6.79,0.566 7.072,0.519 7.214,0.472 7.403,0.471 7.403,0.425 7.45,0.377 7.402,0.33 7.262,0.33 7.072,0.283 6.837,0.236 6.507,0.189 6.177,0.188 5.705,0.142 -0.094,-4.575 z"
           style="fill:#1f1a16;stroke:none" />
        <path
           id="path2882"
           d="m 751.21,631.323 -2.688,0 -2.782,0 -2.923,-0.047 -3.018,-0.047 -6.271,-0.236 -6.601,-0.283 -6.837,-0.424 -7.025,-0.472 -7.167,-0.519 -7.214,-0.613 -7.215,-0.613 -7.119,-0.707 -7.026,-0.755 -6.837,-0.754 -6.554,-0.802 -6.224,-0.802 -5.894,-0.801 -5.422,-0.802 -6.648,-1.038 -6.13,-0.99 -5.752,-0.99 -5.328,-0.896 -9.525,-1.698 -8.298,-1.556 -7.309,-1.415 -6.554,-1.273 -6.082,-1.179 -5.847,-1.085 -2.876,-0.519 -2.971,-0.518 -3.017,-0.472 -3.112,-0.472 -3.207,-0.424 -3.395,-0.472 -3.63,-0.424 -3.772,-0.425 -4.102,-0.424 -4.338,-0.424 -4.715,-0.425 -4.998,-0.424 -5.423,-0.425 -5.799,-0.424 -6.271,-0.425 -6.79,-0.424 -5.847,-0.33 -6.271,-0.377 -6.648,-0.283 -7.026,-0.283 -7.355,-0.189 -7.639,-0.094 -3.913,-0.047 -3.961,0.047 -4.008,0.047 -4.102,0.047 -4.149,0.141 -4.197,0.142 -4.196,0.189 -4.291,0.235 -4.291,0.283 -4.337,0.283 -4.386,0.378 -4.385,0.424 -4.385,0.472 -4.432,0.566 -4.432,0.565 -4.479,0.661 -4.433,0.707 -4.479,0.802 -4.432,0.849 -4.479,0.896 -3.254,0.754 -3.206,0.755 -3.159,0.849 -3.065,0.848 -3.018,0.897 -2.97,0.943 -2.876,0.99 -2.877,1.038 -2.782,1.037 -2.781,1.085 -2.735,1.084 -2.688,1.132 -2.687,1.179 -2.641,1.179 -2.64,1.226 -2.641,1.179 -5.281,2.5 -5.233,2.594 -5.329,2.593 -5.375,2.594 -5.516,2.641 -5.706,2.594 -2.923,1.32 -2.923,1.321 -3.065,1.273 -3.065,1.273 -3.489,1.415 -3.348,1.321 -3.159,1.226 -3.065,1.179 -2.923,1.084 -2.829,0.991 -2.735,0.99 -2.64,0.849 -2.547,0.849 -2.452,0.754 -2.451,0.708 -2.358,0.66 -2.31,0.66 -2.264,0.566 -2.31,0.566 -2.216,0.519 -4.527,0.99 -4.62,0.896 -4.763,0.896 -4.998,0.849 -5.281,0.896 -5.705,0.99 -6.224,1.038 -6.742,1.179 -7.733,1.367 -8.582,1.462 -9.288,1.557 -9.855,1.697 -10.326,1.792 -10.656,1.934 -5.422,0.99 -5.47,1.038 -5.469,1.084 -5.517,1.085 -5.47,1.132 -5.469,1.179 -5.423,1.179 -5.375,1.226 -5.281,1.273 -5.2334,1.274 -5.0923,1.32 -4.998,1.368 -4.8566,1.415 -4.7151,1.414 -4.5736,1.462 -4.3379,1.509 -4.1964,1.557 -3.9607,1.556 -3.7721,1.603 -3.4892,1.651 -2.0746,1.085 -2.2633,1.273 -2.3575,1.462 -2.4519,1.603 -2.5933,1.698 -2.6404,1.839 -2.6876,1.887 -2.6876,2.027 -2.782,2.028 -2.7347,2.075 -2.7348,2.075 -2.6876,2.075 -2.5933,2.075 -2.5461,2.028 -2.499,1.934 -2.3104,1.886 -0.8016,0.66 -0.5658,0.472 -0.1886,0.236 -0.1886,0.188 -0.0943,0.189 -0.0943,0.141 0,0.142 0,0.141 0.0471,0.142 0.0472,0.141 0.1886,0.283 0.33,0.378 0.0943,0.141 0.1415,0.094 0.1414,0.048 0.1415,0.047 0.2829,0 0.2829,-0.095 0.613,-0.377 0.6129,-0.377 1.9804,-1.321 2.2632,-1.462 2.5933,-1.697 2.7819,-1.792 2.9706,-1.887 3.1591,-1.98 3.2062,-1.981 3.2535,-2.028 3.2062,-1.981 3.2063,-1.933 3.0648,-1.792 2.9234,-1.698 2.7347,-1.556 2.4519,-1.321 2.1689,-1.131 1.8389,-0.849 3.4892,-1.462 3.7249,-1.462 3.8664,-1.415 4.1021,-1.415 4.2908,-1.367 4.4322,-1.321 4.5736,-1.32 4.7151,-1.321 4.8566,-1.226 4.9511,-1.273 4.998,-1.179 5.139,-1.179 5.14,-1.179 5.233,-1.085 5.281,-1.085 5.281,-1.084 5.281,-0.991 5.281,-0.99 5.234,-0.99 5.234,-0.896 5.186,-0.896 5.092,-0.849 5.046,-0.802 4.951,-0.754 9.524,-1.415 9.006,-1.274 8.393,-1.131 7.591,-0.896 7.45,-0.991 6.554,-0.896 5.799,-0.754 5.093,-0.661 4.573,-0.66 4.15,-0.566 3.866,-0.613 3.678,-0.613 3.583,-0.66 3.678,-0.755 3.867,-0.848 4.149,-0.944 4.573,-1.084 5.093,-1.274 5.799,-1.462 6.554,-1.65 3.301,-0.896 3.206,-0.896 3.206,-0.991 3.112,-1.037 3.112,-1.085 3.065,-1.132 3.018,-1.179 2.97,-1.179 2.924,-1.226 2.923,-1.226 2.923,-1.273 2.877,-1.321 5.705,-2.64 5.658,-2.641 5.658,-2.689 5.705,-2.64 2.877,-1.274 2.876,-1.273 2.876,-1.273 2.923,-1.226 2.971,-1.227 2.97,-1.179 3.018,-1.131 3.018,-1.085 3.112,-1.038 3.112,-0.99 3.206,-0.943 3.253,-0.896 3.82,-0.991 3.819,-0.943 3.819,-0.849 3.819,-0.801 3.82,-0.755 3.866,-0.707 3.819,-0.66 3.867,-0.566 3.819,-0.566 3.866,-0.519 3.867,-0.472 3.866,-0.377 3.866,-0.377 3.867,-0.377 3.866,-0.283 3.914,-0.236 3.866,-0.236 3.914,-0.189 3.913,-0.188 3.914,-0.142 3.913,-0.094 3.914,-0.094 3.913,-0.048 3.914,-0.047 7.921,0 7.874,0.047 7.922,0.095 7.968,0.188 6.413,0.142 6.035,0.141 5.611,0.189 5.281,0.189 4.951,0.235 4.621,0.189 4.385,0.283 4.102,0.236 3.913,0.283 3.725,0.283 3.537,0.33 3.442,0.33 3.3,0.377 3.206,0.378 3.159,0.377 3.112,0.424 6.272,0.896 6.506,0.991 6.932,1.037 7.544,1.179 8.44,1.273 9.477,1.368 10.798,1.462 12.353,1.556 5.658,0.66 6.13,0.614 6.507,0.565 6.79,0.566 7.072,0.519 7.214,0.472 7.403,0.471 7.403,0.425 7.45,0.377 7.402,0.33 7.262,0.33 7.072,0.283 6.837,0.236 6.507,0.189 6.177,0.188 5.705,0.142 -0.094,-4.575 z"
           style="fill:none;stroke:#1f1a16;stroke-width:0.235755" />
        <path
           id="path2884"
           d="m 28.9036,808.737 -14.5225,0 0,8.866 14.5225,0 0.7072,-0.047 0.5658,-0.095 0.2829,-0.094 0.1886,-0.094 0.2358,-0.142 0.1415,-0.141 0.1414,-0.142 0.0943,-0.188 0.1415,-0.236 0.0471,-0.236 0.1415,-0.566 0,-0.707 0,-3.49 0,-0.708 -0.1415,-0.565 -0.0471,-0.236 -0.1415,-0.236 -0.0943,-0.189 -0.1414,-0.141 -0.1415,-0.142 -0.2358,-0.141 -0.1886,-0.094 -0.2829,-0.095 -0.5658,-0.094 -0.7072,-0.047 z m -18.7661,22.023 0,-25.277 20.4163,0 0.6602,0 0.6601,0.047 0.5658,0.094 0.5658,0.142 0.4715,0.141 0.4244,0.236 0.3772,0.236 0.3772,0.236 0.2829,0.33 0.2357,0.377 0.2358,0.377 0.1886,0.472 0.0943,0.471 0.1415,0.519 0.0471,0.613 0,0.613 0,5.659 0,0.614 -0.0471,0.565 -0.1415,0.519 -0.0943,0.472 -0.1886,0.471 -0.2358,0.378 -0.2357,0.377 -0.2829,0.33 -0.3772,0.236 -0.3772,0.236 -0.4244,0.235 -0.4715,0.142 -0.5658,0.141 -0.5658,0.095 -0.6601,0.047 -0.6602,0 -16.1727,0 0,9.856 -4.2436,0 z"
           style="fill:#1f1a16;stroke:none" />
        <path
           id="path2886"
           d="m 59.4103,813.028 -11.0334,0 0,6.697 11.0334,0 0.6129,0 0.5187,-0.094 0.1886,-0.048 0.1886,-0.094 0.1414,-0.094 0.1415,-0.095 0.0943,-0.094 0.0943,-0.189 0.0943,-0.141 0.0472,-0.189 0.0943,-0.471 0.0471,-0.566 0,-2.5 -0.0471,-0.518 -0.0943,-0.472 -0.1415,-0.377 -0.2358,-0.283 -0.0943,-0.094 -0.1886,-0.095 -0.1886,-0.094 -0.1886,-0.047 -0.4715,-0.095 -0.6129,-0.047 z m -14.9469,17.732 0,-20.75 16.6914,0 0.5659,0 0.5186,0.047 0.4715,0.095 0.4244,0.094 0.4243,0.141 0.3301,0.142 0.3301,0.188 0.2829,0.236 0.2357,0.236 0.1886,0.283 0.1886,0.33 0.1415,0.377 0.0943,0.425 0.0943,0.424 0.0471,0.472 0,0.519 0,4.621 0,0.519 -0.0471,0.472 -0.0943,0.424 -0.0943,0.424 -0.1415,0.378 -0.1886,0.283 -0.1886,0.33 -0.2357,0.236 -0.2829,0.235 -0.3301,0.189 -0.3301,0.141 -0.4243,0.142 -0.4244,0.094 -0.4715,0.047 -0.5186,0.048 -0.5659,0.047 -2.7347,0 9.1473,8.111 -5.2338,0 -8.2986,-8.111 -5.6581,0 0,8.111 -3.9135,0 z"
           style="fill:#1f1a16;stroke:none" />
        <path
           id="path2888"
           d="m 77.8935,827.648 17.3515,0 0,-14.573 -17.3515,0 0,14.573 z m -3.9136,-12.733 0,-0.661 0.0472,-0.613 0.0943,-0.613 0.1414,-0.518 0.1415,-0.425 0.1886,-0.424 0.1886,-0.33 0.2829,-0.283 0.2829,-0.236 0.3772,-0.236 0.3772,-0.189 0.4715,-0.141 0.5658,-0.094 0.5658,-0.095 0.6602,-0.047 0.7072,0 14.994,0 0.7073,0 0.6601,0.047 0.5658,0.095 0.5658,0.094 0.4716,0.141 0.3772,0.189 0.3772,0.236 0.2829,0.236 0.2829,0.283 0.1886,0.33 0.1886,0.424 0.1414,0.425 0.1415,0.518 0.0943,0.613 0.0472,0.613 0,0.661 0,10.941 0,0.707 -0.0472,0.613 -0.0943,0.566 -0.0943,0.519 -0.1886,0.471 -0.1415,0.378 -0.2357,0.33 -0.2358,0.283 -0.33,0.235 -0.3301,0.236 -0.4243,0.189 -0.4716,0.141 -0.5186,0.095 -0.613,0.094 -0.6601,0.047 -0.7073,0 -14.994,0 -0.7072,0 -0.6602,-0.047 -0.6129,-0.094 -0.5187,-0.095 -0.4715,-0.141 -0.4243,-0.189 -0.3773,-0.188 -0.2829,-0.236 -0.2357,-0.283 -0.2358,-0.377 -0.1414,-0.378 -0.1886,-0.471 -0.0943,-0.519 -0.0943,-0.566 -0.0472,-0.613 0,-0.707 0,-10.941 z"
           style="fill:#1f1a16;stroke:none" />
        <path
           id="path2890"
           d="m 108.306,830.76 0,-20.75 20.652,0 0,3.065 -16.739,0 0,6.414 9.431,0 0,3.065 -9.431,0 0,8.206 -3.913,0 z"
           style="fill:#1f1a16;stroke:none" />
        <path
           id="path2892"
           d="m 140.463,825.384 0.471,0 0.378,0.047 0.235,0.094 0.189,0.095 0.094,0.188 0.047,0.236 0.048,0.283 0,0.377 0,2.783 0,0.377 -0.048,0.283 -0.047,0.236 -0.094,0.141 -0.142,0.095 -0.282,0.094 -0.378,0.047 -0.471,0 -2.924,0 -0.282,0 -0.236,-0.047 -0.142,-0.094 -0.141,-0.095 -0.094,-0.141 -0.048,-0.236 -0.047,-0.283 0,-0.377 0,-2.783 0,-0.377 0.047,-0.283 0.048,-0.236 0.141,-0.188 0.141,-0.095 0.283,-0.094 0.33,-0.047 0.472,0 2.452,0 z"
           style="fill:#1f1a16;stroke:none" />
        <path
           id="path2894"
           d="m 186.624,808.925 -9.1,0 0,18.345 9.1,0 1.461,-0.047 1.368,-0.094 1.273,-0.189 1.131,-0.236 0.519,-0.141 0.519,-0.141 0.471,-0.189 0.425,-0.189 0.424,-0.236 0.377,-0.188 0.377,-0.283 0.33,-0.236 0.283,-0.283 0.283,-0.283 0.283,-0.33 0.236,-0.377 0.236,-0.33 0.235,-0.425 0.189,-0.424 0.141,-0.425 0.142,-0.424 0.141,-0.519 0.095,-0.471 0.094,-0.519 0.141,-1.132 0.048,-1.179 -0.048,-1.179 -0.141,-1.085 -0.094,-0.471 -0.095,-0.519 -0.141,-0.472 -0.142,-0.424 -0.188,-0.424 -0.189,-0.378 -0.188,-0.424 -0.236,-0.33 -0.236,-0.33 -0.283,-0.331 -0.283,-0.282 -0.33,-0.283 -0.33,-0.283 -0.377,-0.236 -0.377,-0.189 -0.425,-0.236 -0.471,-0.188 -0.472,-0.189 -0.471,-0.141 -0.519,-0.142 -1.131,-0.236 -1.273,-0.141 -1.321,-0.094 -1.461,-0.048 z m 0.565,-3.442 1.698,0 1.509,0.094 1.367,0.142 1.226,0.235 1.132,0.236 1.037,0.377 0.472,0.189 0.424,0.189 0.471,0.235 0.378,0.236 0.613,0.425 0.565,0.471 0.519,0.519 0.519,0.519 0.424,0.566 0.472,0.613 0.377,0.613 0.377,0.707 0.33,0.708 0.283,0.707 0.236,0.755 0.188,0.754 0.142,0.755 0.141,0.801 0.047,0.802 0,0.849 0,0.849 -0.047,0.849 -0.141,0.849 -0.142,0.801 -0.188,0.802 -0.236,0.755 -0.283,0.754 -0.33,0.707 -0.33,0.708 -0.424,0.613 -0.425,0.613 -0.471,0.613 -0.472,0.519 -0.566,0.519 -0.565,0.471 -0.613,0.425 -0.378,0.235 -0.424,0.236 -0.471,0.189 -0.472,0.188 -0.99,0.331 -1.132,0.283 -1.226,0.188 -1.367,0.189 -1.556,0.094 -1.698,0 -13.909,0 0,-25.277 13.909,0 z"
           style="fill:#1f1a16;stroke:none" />
        <path
           id="path2896"
           d="m 226.089,813.028 -11.033,0 0,6.697 11.033,0 0.613,0 0.519,-0.094 0.188,-0.048 0.189,-0.094 0.141,-0.094 0.142,-0.095 0.094,-0.094 0.094,-0.189 0.095,-0.141 0.047,-0.189 0.094,-0.471 0,-0.566 0,-2.5 0,-0.518 -0.094,-0.472 -0.142,-0.377 -0.235,-0.283 -0.142,-0.094 -0.141,-0.095 -0.189,-0.094 -0.188,-0.047 -0.472,-0.095 -0.613,-0.047 z m -14.947,17.732 0,-20.75 16.692,0 0.565,0 0.519,0.047 0.472,0.095 0.424,0.094 0.424,0.141 0.33,0.142 0.33,0.188 0.283,0.236 0.236,0.236 0.189,0.283 0.188,0.33 0.142,0.377 0.094,0.425 0.094,0.424 0.048,0.472 0,0.519 0,4.621 0,0.519 -0.048,0.472 -0.094,0.424 -0.094,0.424 -0.142,0.378 -0.188,0.283 -0.189,0.33 -0.236,0.236 -0.283,0.235 -0.33,0.189 -0.33,0.141 -0.424,0.142 -0.424,0.094 -0.472,0.047 -0.519,0.048 -0.565,0.047 -2.735,0 9.147,8.111 -5.234,0 -8.298,-8.111 -5.658,0 0,8.111 -3.914,0 z"
           style="fill:#1f1a16;stroke:none" />
        <path
           id="path2898"
           d="m 246.741,825.384 0.472,0 0.33,0.047 0.283,0.094 0.141,0.095 0.094,0.188 0.095,0.236 0.047,0.283 0,0.377 0,2.783 0,0.377 -0.047,0.283 -0.047,0.236 -0.095,0.141 -0.141,0.095 -0.283,0.094 -0.377,0.047 -0.472,0 -2.97,0 -0.236,0 -0.236,-0.047 -0.188,-0.094 -0.095,-0.095 -0.094,-0.141 -0.047,-0.236 -0.047,-0.283 0,-0.377 0,-2.783 0,-0.377 0.047,-0.283 0.047,-0.236 0.094,-0.188 0.189,-0.095 0.236,-0.094 0.377,-0.047 0.471,0 2.452,0 z"
           style="fill:#1f1a16;stroke:none" />
        <path
           id="path2900"
           d="m 257.444,819.489 0,-3.584 10.657,0 0,3.584 -10.657,0 z"
           style="fill:#1f1a16;stroke:none" />
        <path
           id="path2902"
           d="m 277.389,830.76 0,-25.277 4.244,0 0,25.277 -4.244,0 z"
           style="fill:#1f1a16;stroke:none" />
        <path
           id="path2904"
           d="m 296.297,814.16 0.094,0.472 0.047,0.424 0.047,0.472 0.048,0.471 0.047,0.472 0,0.472 0,0.471 0,0.472 0,12.874 -3.584,0 0,-20.75 2.971,0 15.23,13.535 0.66,0.613 0.66,0.66 0.283,0.377 0.283,0.378 0.33,0.424 0.283,0.425 -0.048,-0.472 -0.094,-0.472 -0.047,-0.471 -0.047,-0.472 -0.047,-0.519 0,-0.471 -0.047,-0.519 0,-0.472 0,-12.544 3.63,0 0,20.75 -2.687,0 -15.56,-13.77 -0.377,-0.378 -0.378,-0.33 -0.33,-0.377 -0.33,-0.33 -0.518,-0.708 -0.519,-0.707 z"
           style="fill:#1f1a16;stroke:none" />
        <path
           id="path2906"
           d="m 346.418,813.075 -16.408,0 0,14.573 16.408,0 0,-5.659 -8.44,0 0,-2.83 12.354,0 0,6.697 0,0.707 -0.047,0.613 -0.095,0.566 -0.094,0.519 -0.141,0.471 -0.189,0.378 -0.236,0.33 -0.235,0.283 -0.283,0.235 -0.378,0.236 -0.424,0.189 -0.471,0.141 -0.519,0.095 -0.613,0.094 -0.66,0.047 -0.707,0 -14.051,0 -0.708,0 -0.66,-0.047 -0.613,-0.094 -0.518,-0.095 -0.472,-0.141 -0.424,-0.189 -0.33,-0.188 -0.33,-0.236 -0.236,-0.283 -0.189,-0.377 -0.188,-0.378 -0.142,-0.471 -0.141,-0.519 -0.095,-0.566 -0.047,-0.613 0,-0.707 0,-10.941 0,-0.661 0.047,-0.613 0.095,-0.613 0.141,-0.518 0.142,-0.425 0.188,-0.424 0.189,-0.33 0.283,-0.283 0.283,-0.236 0.377,-0.236 0.377,-0.189 0.519,-0.141 0.518,-0.094 0.566,-0.095 0.66,-0.047 0.708,0 14.051,0 0.707,0 0.66,0.047 0.566,0.095 0.518,0.094 0.472,0.141 0.424,0.189 0.378,0.236 0.282,0.236 0.283,0.283 0.189,0.33 0.189,0.377 0.188,0.424 0.094,0.472 0.095,0.519 0.047,0.566 0,0.613 0,0.613 -3.914,0.66 0,-2.83 z"
           style="fill:#1f1a16;stroke:none" />
        <path
           id="path2908"
           d="m 364.619,825.384 0.471,0 0.33,0.047 0.283,0.094 0.142,0.095 0.141,0.188 0.047,0.236 0.047,0.283 0,0.377 0,2.783 0,0.377 -0.047,0.283 -0.047,0.236 -0.094,0.141 -0.142,0.095 -0.283,0.094 -0.377,0.047 -0.471,0 -2.971,0 -0.236,0 -0.235,-0.047 -0.142,-0.094 -0.141,-0.095 -0.095,-0.141 -0.047,-0.236 -0.047,-0.283 0,-0.377 0,-2.783 0,-0.377 0.047,-0.283 0.047,-0.236 0.142,-0.188 0.141,-0.095 0.283,-0.094 0.33,-0.047 0.472,0 2.452,0 z"
           style="fill:#1f1a16;stroke:none" />
        <path
           id="path2910"
           d="m 397.436,830.76 0,-25.277 24.047,0 0,3.442 -19.804,0 0,8.3 11.317,0 0,3.349 -11.317,0 0,10.186 -4.243,0 z"
           style="fill:#1f1a16;stroke:none" />
        <path
           id="path2912"
           d="m 426.056,830.76 0,-20.75 20.888,0 0,3.065 -16.974,0 0,5.329 10.232,0 0,3.113 -10.232,0 0,6.225 17.163,0 0,3.018 -21.077,0 z"
           style="fill:#1f1a16;stroke:none" />
        <path
           id="path2914"
           d="m 469.483,813.028 -11.034,0 0,6.697 11.034,0 0.612,0 0.472,-0.094 0.236,-0.048 0.188,-0.094 0.142,-0.094 0.094,-0.095 0.142,-0.094 0.094,-0.189 0.047,-0.141 0.094,-0.189 0.095,-0.471 0,-0.566 0,-2.5 0,-0.518 -0.095,-0.472 -0.188,-0.377 -0.189,-0.283 -0.141,-0.094 -0.142,-0.095 -0.188,-0.094 -0.189,-0.047 -0.519,-0.095 -0.565,-0.047 z m -14.995,17.732 0,-20.75 16.692,0 0.566,0 0.518,0.047 0.519,0.095 0.424,0.094 0.378,0.141 0.377,0.142 0.283,0.188 0.283,0.236 0.235,0.236 0.236,0.283 0.142,0.33 0.141,0.377 0.142,0.425 0.094,0.424 0.047,0.472 0,0.519 0,4.621 0,0.519 -0.047,0.472 -0.094,0.424 -0.142,0.424 -0.141,0.378 -0.142,0.283 -0.236,0.33 -0.235,0.236 -0.283,0.235 -0.283,0.189 -0.377,0.141 -0.378,0.142 -0.424,0.094 -0.519,0.047 -0.518,0.048 -0.566,0.047 -2.735,0 9.195,8.111 -5.281,0 -8.252,-8.111 -5.658,0 0,8.111 -3.961,0 z"
           style="fill:#1f1a16;stroke:none" />
        <path
           id="path2916"
           d="m 488.343,830.76 -3.914,0 0,-20.703 3.914,0 0,20.703 z"
           style="fill:#1f1a16;stroke:none" />
        <path
           id="path2918"
           d="m 507.816,813.075 0,17.685 -3.866,0 0,-17.685 -9.808,0 0,-3.065 23.576,0 0,3.065 -9.902,0 z"
           style="fill:#1f1a16;stroke:none" />
        <path
           id="path2920"
           d="m 543.651,830.76 0,-25.277 4.244,0 0,10.846 15.748,-10.846 6.177,0 -18.342,12.12 20.369,13.157 -7.072,0 -16.88,-11.365 0,11.365 -4.244,0 z"
           style="fill:#1f1a16;stroke:none" />
        <path
           id="path2922"
           d="m 581.513,810.01 0,17.638 15.183,0 0,-17.638 3.961,0 0,15.846 0,0.707 -0.048,0.613 -0.094,0.566 -0.094,0.519 -0.142,0.471 -0.188,0.378 -0.236,0.377 -0.236,0.283 -0.283,0.236 -0.377,0.188 -0.424,0.189 -0.472,0.141 -0.518,0.095 -0.613,0.094 -0.66,0.047 -0.708,0 -12.872,0 -0.707,0 -0.66,-0.047 -0.566,-0.094 -0.519,-0.095 -0.518,-0.141 -0.378,-0.189 -0.377,-0.236 -0.283,-0.235 -0.236,-0.283 -0.235,-0.33 -0.189,-0.378 -0.141,-0.471 -0.142,-0.519 -0.047,-0.566 -0.047,-0.613 -0.047,-0.707 0,-15.846 3.913,0 z m 9.572,-4.15 0,-4.527 3.819,0 0,4.527 -3.819,0 z m -7.639,0 0,-4.527 3.82,0 0,4.527 -3.82,0 z"
           style="fill:#1f1a16;stroke:none" />
        <path
           id="path2924"
           d="m 644.413,810.01 0,17.638 15.135,0 0,-17.638 4.008,0 0,15.846 -0.047,0.707 -0.047,0.613 -0.095,0.566 -0.094,0.519 -0.141,0.471 -0.189,0.378 -0.236,0.377 -0.235,0.283 -0.283,0.236 -0.378,0.188 -0.424,0.189 -0.471,0.141 -0.519,0.095 -0.613,0.094 -0.613,0.047 -0.707,0 -12.873,0 -0.707,0 -0.66,-0.047 -0.613,-0.094 -0.519,-0.095 -0.471,-0.141 -0.424,-0.189 -0.378,-0.236 -0.283,-0.235 -0.235,-0.283 -0.236,-0.33 -0.189,-0.378 -0.141,-0.471 -0.094,-0.519 -0.095,-0.566 -0.047,-0.613 0,-0.707 0,-15.846 3.914,0 z m 9.524,-4.15 0,-4.527 3.819,0 0,4.527 -3.819,0 z m -7.638,0 0,-4.527 3.819,0 0,4.527 -3.819,0 z"
           style="fill:#1f1a16;stroke:none" />
        <path
           id="path2926"
           d="m 628.193,813.075 -14.476,0 0,14.573 14.476,0 0,-4.952 3.913,0.707 0,2.453 0,0.707 -0.047,0.613 -0.094,0.566 -0.094,0.519 -0.142,0.471 -0.189,0.378 -0.235,0.33 -0.236,0.283 -0.283,0.235 -0.377,0.236 -0.425,0.189 -0.471,0.141 -0.519,0.095 -0.613,0.094 -0.66,0.047 -0.707,0 -12.165,0 -0.707,0 -0.66,-0.047 -0.613,-0.094 -0.519,-0.095 -0.471,-0.141 -0.425,-0.189 -0.33,-0.188 -0.283,-0.236 -0.283,-0.283 -0.188,-0.33 -0.189,-0.378 -0.141,-0.471 -0.095,-0.519 -0.094,-0.566 -0.047,-0.66 0,-0.707 0,-10.941 0,-0.661 0.047,-0.66 0.094,-0.566 0.095,-0.518 0.141,-0.472 0.189,-0.377 0.235,-0.378 0.236,-0.283 0.283,-0.235 0.377,-0.189 0.378,-0.189 0.471,-0.141 0.519,-0.094 0.613,-0.095 0.66,-0.047 0.707,0 12.165,0 0.707,0 0.66,0.047 0.613,0.095 0.519,0.094 0.471,0.141 0.425,0.189 0.377,0.236 0.283,0.236 0.236,0.283 0.235,0.33 0.189,0.424 0.142,0.425 0.094,0.518 0.094,0.613 0.047,0.613 0,0.661 0,1.98 -3.913,0.661 0,-4.481 z m -12.495,27.777 0,-2.028 0.896,0.189 0.848,0.142 0.802,0.141 0.801,0.142 0.708,0.094 0.66,0.047 0.613,0.047 0.566,0 0.707,0 0.566,-0.094 0.518,-0.142 0.378,-0.235 0.188,-0.142 0.142,-0.141 0.141,-0.142 0.094,-0.189 0.048,-0.188 0.094,-0.189 0,-0.236 0.047,-0.235 -0.047,-0.331 0,-0.235 -0.094,-0.283 -0.048,-0.236 -0.141,-0.189 -0.094,-0.236 -0.189,-0.141 -0.141,-0.141 -0.236,-0.142 -0.236,-0.141 -0.236,-0.095 -0.283,-0.047 -0.707,-0.141 -0.754,0 -0.377,0 -0.331,0 -0.33,0 -0.33,0.047 0,-4.622 1.745,0 0,2.547 0.566,0 0.613,0 0.613,0.047 0.565,0.094 0.519,0.142 0.519,0.141 0.424,0.189 0.425,0.236 0.33,0.235 0.33,0.283 0.283,0.331 0.235,0.33 0.189,0.377 0.141,0.424 0.095,0.425 0.094,0.471 0,0.519 0,0.519 -0.094,0.471 -0.095,0.472 -0.188,0.377 -0.189,0.425 -0.283,0.33 -0.283,0.33 -0.377,0.283 -0.377,0.283 -0.424,0.236 -0.519,0.188 -0.519,0.142 -0.566,0.141 -0.613,0.095 -0.66,0.047 -0.707,0 -0.566,0 -0.566,-0.047 -0.66,-0.095 -0.707,-0.094 -0.754,-0.141 -0.849,-0.189 -0.896,-0.189 -1.037,-0.283 z"
           style="fill:#131415;stroke:none" />
        <path
           id="path2928"
           d="m 673.175,830.76 0,-20.75 3.913,0 0,8.913 13.108,-8.913 5.423,0 -15.324,9.998 17.021,10.752 -6.412,0 -13.816,-9.29 0,9.29 -3.913,0 z"
           style="fill:#131415;stroke:none" />
        <path
           id="path2930"
           d="m 701.135,830.76 12.024,-20.75 3.583,0 12.307,20.75 -4.244,0 -2.735,-4.857 -14.333,0 -2.688,4.857 -3.914,0 z m 8.252,-7.828 11.033,0 -5.517,-9.904 -5.516,9.904 z"
           style="fill:#131415;stroke:none" />
        <path
           id="path2932"
           d="m 739.658,830.76 0,-9.054 -10.845,-11.696 4.762,0 8.252,9.007 7.921,-9.007 4.574,0 -10.798,11.696 0,9.054 -3.866,0 z"
           style="fill:#131415;stroke:none" />
      </g>
      <g
         id="g2934" />
    </g>
  </g>
</svg>
